<svg xmlns="http://www.w3.org/2000/svg" width="30" height="24" viewBox="0 0 30 24">
  <path fill="#FFF" fill-rule="evenodd" d="M29.8723302,2.914 C29.7223302,2.746 29.4763302,2.701 29.2753302,2.801 C29.0403302,2.919 28.5203302,3.086 27.9513302,3.231 C28.5283302,2.568 29.0103302,1.766 29.2023302,1.058 C29.2573302,0.855 29.1803302,0.641 29.0103302,0.519 C28.8383302,0.397 28.6103302,0.396 28.4383302,0.514 C28.0533302,0.776 26.2443302,1.545 25.1223302,1.768 C23.7293302,0.547 22.3483302,2.3306281e-16 20.6743302,2.3306281e-16 C19.4353302,2.3306281e-16 18.2843302,0.341 16.9433302,1.105 C14.5533302,2.467 14.1913302,5.464 14.3973302,7.221 C7.78933022,6.67 4.08633022,2.988 2.77833022,1.393 C2.67533022,1.268 2.51733022,1.197 2.35633022,1.211 C2.19433022,1.223 2.04833022,1.311 1.96433022,1.45 C1.09233022,2.884 0.851330217,4.493 1.26933022,6.102 C1.53133022,7.111 2.02133022,7.999 2.57333022,8.693 C2.17233022,8.484 1.77833022,8.218 1.44133022,7.95 C1.29133022,7.83 1.08533022,7.809 0.913330217,7.891 C0.740330217,7.975 0.630330217,8.149 0.630330217,8.341 C0.630330217,11.251 2.59233022,13.237 4.28333022,14.218 C3.91033022,14.153 3.52233022,14.048 3.16533022,13.942 C2.97633022,13.886 2.77233022,13.945 2.64433022,14.094 C2.51533022,14.242 2.48633022,14.453 2.56833022,14.631 C3.60433022,16.865 5.69833022,18.51 8.01533022,19.004 C6.01333022,20.254 3.17333022,20.878 0.556330217,20.581 C0.322330217,20.558 0.0963302165,20.7 0.0233302165,20.928 C-0.0486697835,21.155 0.0503302165,21.402 0.260330217,21.517 C3.30733022,23.188 6.47233022,24 9.93533022,24 L9.95733022,24 C14.8353302,23.996 19.3753302,21.91 22.7393302,18.128 C25.7893302,14.7 27.3773302,10.354 27.0263302,6.441 C27.8503302,5.859 29.1343302,4.732 29.9193302,3.52 C30.0423302,3.331 30.0233302,3.082 29.8723302,2.914"/>
</svg>
