<svg xmlns="http://www.w3.org/2000/svg" width="30" height="22" viewBox="0 0 30 22">
  <path fill="#FFF" fill-rule="evenodd" d="M20.761,11.427 L11.761,16.927 C11.681,16.976 11.591,17 11.5,17 C11.416,17 11.332,16.979 11.256,16.936 C11.098,16.848 11,16.681 11,16.5 L11,5.5 C11,5.32 11.098,5.153 11.256,5.064 C11.414,4.976 11.607,4.979 11.761,5.073 L20.761,10.573 C20.909,10.664 21,10.826 21,11 C21,11.175 20.909,11.336 20.761,11.427 M25.873,0.682 C25.115,0.619 24.379,0.551 23.649,0.484 C20.957,0.235 18.415,-4.66125619e-16 15,-4.66125619e-16 C11.701,-4.66125619e-16 8.934,0.251 6.259,0.494 C5.553,0.558 4.846,0.622 4.127,0.682 C1.813,0.876 -6.99147771e-16,2.845 -6.99147771e-16,5.167 L-6.99147771e-16,16.834 C-6.99147771e-16,19.155 1.813,21.125 4.127,21.318 C4.879,21.381 5.609,21.448 6.335,21.515 C9.047,21.764 11.609,22 15,22 C18.487,22 20.971,21.768 23.603,21.523 C24.344,21.453 25.094,21.384 25.873,21.318 C28.188,21.125 30,19.155 30,16.834 L30,5.167 C30,2.845 28.188,0.876 25.873,0.682"/>
</svg>
