<svg xmlns="http://www.w3.org/2000/svg" width="30" height="22" viewBox="0 0 30 22">
  <path className="fill-current" fill-rule="evenodd" d="M20.7607,11.4268 L11.7607,16.9268 C11.6807,16.9758 11.5907,16.9998 11.4997,16.9998 C11.4157,16.9998 11.3317,16.9788 11.2557,16.9358 C11.0977,16.8478 10.9997,16.6808 10.9997,16.4998 L10.9997,5.4998 C10.9997,5.3198 11.0977,5.1528 11.2557,5.0638 C11.4137,4.9758 11.6067,4.9788 11.7607,5.0728 L20.7607,10.5728 C20.9087,10.6638 20.9997,10.8258 20.9997,10.9998 C20.9997,11.1748 20.9087,11.3358 20.7607,11.4268 M25.8727,0.6818 C25.1147,0.6188 24.3787,0.5508 23.6487,0.4838 C20.9567,0.2348 18.4147,-0.0002 14.9997,-0.0002 C11.7007,-0.0002 8.9337,0.2508 6.2587,0.4938 C5.5527,0.5578 4.8457,0.6218 4.1267,0.6818 C1.8127,0.8758 -0.0003,2.8448 -0.0003,5.1668 L-0.0003,16.8338 C-0.0003,19.1548 1.8127,21.1248 4.1267,21.3178 C4.8787,21.3808 5.6087,21.4478 6.3347,21.5148 C9.0467,21.7638 11.6087,21.9998 14.9997,21.9998 C18.4867,21.9998 20.9707,21.7678 23.6027,21.5228 C24.3437,21.4528 25.0937,21.3838 25.8727,21.3178 C28.1877,21.1248 29.9997,19.1548 29.9997,16.8338 L29.9997,5.1668 C29.9997,2.8448 28.1877,0.8758 25.8727,0.6818"/>
</svg>
